<svg xmlns="http://www.w3.org/2000/svg" viewBox="0 0 81.26 92.57"><defs><style>.cls-1{fill:#fff;}</style></defs><title>fix</title><g id="Layer_2" data-name="Layer 2"><g id="Layer_1-2" data-name="Layer 1"><path class="cls-1" d="M18.17,0A11.57,11.57,0,0,1,20,1.33a3.24,3.24,0,0,1,0,4.19,3.23,3.23,0,0,1-4.18.77,1.16,1.16,0,0,0-.75-.18C12.9,6.7,10.72,7.28,8.57,8a5.78,5.78,0,0,0-4,4.88,24.53,24.53,0,0,0-.11,7.79A41.59,41.59,0,0,0,9.13,34.71c.94,1.78,2.11,3.43,3.2,5.13a.75.75,0,0,0,.45.33,4.15,4.15,0,0,1,2.43,1.55,19.64,19.64,0,0,0,6.48,4.91,10.8,10.8,0,0,0,10.06-.55,20.24,20.24,0,0,0,5.45-4.47,4.15,4.15,0,0,1,2.24-1.46,1.59,1.59,0,0,0,.79-.6,45.38,45.38,0,0,0,6.1-12.29,32.79,32.79,0,0,0,1.69-12,11.39,11.39,0,0,0-.87-4.3,5.14,5.14,0,0,0-3-2.81c-2.11-.73-4.27-1.29-6.4-1.95a1.78,1.78,0,0,0-1.53.2,3.26,3.26,0,0,1-4.62-2.56A3.23,3.23,0,0,1,33.69.31,4.5,4.5,0,0,0,34.14,0h1.48A6.79,6.79,0,0,1,37.9,1.8c.29.38,1.05.41,1.62.55A28.06,28.06,0,0,1,46.9,4.84a9.08,9.08,0,0,1,4.4,5.41c1.43,4.7,1.09,9.43.12,14.16a46.15,46.15,0,0,1-4.36,12c-1,2-2.37,3.85-3.56,5.77a2,2,0,0,0-.33.94,3.88,3.88,0,0,1-1.12,2.56A30.31,30.31,0,0,1,36,50.92,18.7,18.7,0,0,1,29,53.67c-.6.1-.83.27-.82.91,0,4.76,0,9.51.05,14.27a19.41,19.41,0,0,0,2,9,18.89,18.89,0,0,0,10,9.14,19,19,0,0,0,22.27-6.34,19.34,19.34,0,0,0,3.79-12.08c0-4.21,0-8.43,0-12.71-.55-.15-1.09-.28-1.62-.44a12.14,12.14,0,0,1-8.23-7.74,12.27,12.27,0,0,1,2.51-13A12.75,12.75,0,0,1,78.68,50.89a12.24,12.24,0,0,1-7.36,4.72c-.6.13-.79.36-.79,1,0,4.59.09,9.17,0,13.75A23.16,23.16,0,0,1,56.11,90.75a53.93,53.93,0,0,1-6.47,1.7l-.42.12h-3.7c-1.41-.29-2.85-.51-4.24-.88A23.27,23.27,0,0,1,24.5,73.61a27.73,27.73,0,0,1-.4-4.91c-.05-4.68,0-9.36,0-14v-.75c-1-.25-1.93-.46-2.86-.73a19.21,19.21,0,0,1-7.07-3.85,47,47,0,0,1-4.14-4,5.78,5.78,0,0,1-.8-1.93,5.34,5.34,0,0,0-.43-1.26,47.6,47.6,0,0,1-5.19-9.23A45.51,45.51,0,0,1,.28,21.05a25.28,25.28,0,0,1,.6-10.53A9.37,9.37,0,0,1,6,4.51,34,34,0,0,1,13.39,2.2a2.63,2.63,0,0,0,1.42-.79,11.82,11.82,0,0,1,2-1.41ZM77,43.25a8.57,8.57,0,1,0-8.59,8.58A8.5,8.5,0,0,0,77,43.25Z"/><path class="cls-1" d="M68.47,49.56a6.33,6.33,0,1,1,.06-12.66,6.33,6.33,0,1,1-.06,12.66Z"/></g></g></svg>