<svg xmlns="http://www.w3.org/2000/svg" viewBox="0 0 78.37 78.36"><defs><style>.cls-1{fill:#ff8533;}</style></defs><title>logo</title><g id="Layer_2" data-name="Layer 2"><g id="Layer_1-2" data-name="Layer 1"><path class="cls-1" d="M39.18,0A39.18,39.18,0,1,0,78.37,39.18,39.18,39.18,0,0,0,39.18,0Zm2.18,19.87A8.44,8.44,0,0,1,44,16.32a4.79,4.79,0,0,1,2.28-1l.22-.06h.7a12.78,12.78,0,0,1,1.83.64,7,7,0,0,1,2.91,3.23,13.71,13.71,0,0,1,1.39,5.4,14.5,14.5,0,0,1-1,6.36,8.48,8.48,0,0,1-2.67,3.74,4.56,4.56,0,0,1-6.13-.34,9.93,9.93,0,0,1-2.79-5.06A14.89,14.89,0,0,1,41.36,19.87Zm-15.8,1.61a9.83,9.83,0,0,1,2.73-4.79,4.92,4.92,0,0,1,2.77-1.34l.14-.06h.7a11.26,11.26,0,0,1,1.83.62,7,7,0,0,1,3,3.32A14.53,14.53,0,0,1,37.88,28a11.68,11.68,0,0,1-2,5.14,5.76,5.76,0,0,1-3.06,2.32,4.48,4.48,0,0,1-4.38-1.09,9.53,9.53,0,0,1-2.84-4.86A15,15,0,0,1,25.56,21.48ZM18.61,42.9a12.19,12.19,0,0,1-2.7-6.79,1.63,1.63,0,0,0-.07-.3v-.55c.11-.63.16-1.27.33-1.88a3.9,3.9,0,0,1,2.77-3,4.45,4.45,0,0,1,3.48.63,10.5,10.5,0,0,1,4.22,4.9,11.25,11.25,0,0,1,1.1,5,6.92,6.92,0,0,1-.56,2.62,3.7,3.7,0,0,1-4.66,2.16A8,8,0,0,1,18.61,42.9ZM55.27,61.23a4.56,4.56,0,0,1-2.62,1.52c-.59.14-1.2.21-1.8.32H49.29a.85.85,0,0,0-.17-.08A9.93,9.93,0,0,1,45,61.47a7.83,7.83,0,0,0-1.88-.74,13.48,13.48,0,0,0-4.39-.28,8.23,8.23,0,0,0-3.79,1.07,15.39,15.39,0,0,1-2.24,1.08,16.66,16.66,0,0,1-1.88.47H29.16c-.55-.1-1.1-.18-1.64-.29a4.8,4.8,0,0,1-3.66-6.36,19.16,19.16,0,0,1,2.27-4.35,66.65,66.65,0,0,1,5-7.3,16.17,16.17,0,0,1,3.18-3.22A9,9,0,0,1,38.64,40a11.7,11.7,0,0,1,5.56.68,8.77,8.77,0,0,1,3.39,2.64A65,65,0,0,1,53.87,52a30.47,30.47,0,0,1,2.07,3.8A4.92,4.92,0,0,1,55.27,61.23Zm7.25-25.42c-.1.66-.15,1.34-.31,2A11.15,11.15,0,0,1,57,45.25a4.22,4.22,0,0,1-3.46.49,3.94,3.94,0,0,1-2.58-2.87,8.93,8.93,0,0,1,.11-5.12A11.8,11.8,0,0,1,55,31.64a6.06,6.06,0,0,1,3.1-1.37,3.61,3.61,0,0,1,3.85,2.38,13.32,13.32,0,0,1,.51,2,4.25,4.25,0,0,1,.08.61Z"/></g></g></svg>